<?xml version="1.0" encoding="utf-8" ?>
<svg xmlns="http://www.w3.org/2000/svg" xmlns:xlink="http://www.w3.org/1999/xlink" width="800" height="800">
	<path d="M394.773 200.558C396.897 200.352 399.061 200.345 401.196 200.302C411.498 200.098 421.39 201.531 431.437 203.609C461.429 209.811 490.465 222.998 512.692 244.467C544.117 274.819 563.032 313.44 563.781 357.37C564.544 402.137 548.763 441.543 517.659 473.684C490.887 501.348 445.087 520.47 406.629 521.089Q404.627 521.127 402.625 521.119Q400.623 521.111 398.621 521.057Q396.62 521.002 394.62 520.901Q392.621 520.8 390.624 520.653Q388.627 520.505 386.634 520.312Q384.641 520.118 382.654 519.878Q380.666 519.638 378.684 519.352Q376.703 519.065 374.728 518.733Q372.754 518.401 370.787 518.023Q368.821 517.646 366.864 517.222Q364.907 516.799 362.961 516.33Q361.014 515.861 359.079 515.347Q357.144 514.833 355.221 514.275Q353.298 513.716 351.389 513.113Q349.48 512.51 347.585 511.863Q345.691 511.215 343.812 510.524Q341.932 509.833 340.07 509.098Q338.207 508.364 336.362 507.586Q334.517 506.808 332.691 505.988Q330.864 505.167 329.058 504.305Q327.251 503.442 325.464 502.538Q323.678 501.634 321.913 500.688Q320.148 499.743 318.406 498.756Q316.663 497.77 314.944 496.744Q313.225 495.717 311.53 494.651Q309.836 493.585 308.166 492.48Q306.497 491.375 304.853 490.231Q303.21 489.087 301.593 487.906Q299.977 486.724 298.388 485.505Q296.8 484.287 295.24 483.031Q293.68 481.776 292.15 480.485Q290.62 479.193 289.12 477.867C258.437 451.26 240.167 411.994 237.399 371.726C236.812 363.189 237.264 354.859 238.044 346.356C241.426 309.462 256.09 280.426 280.15 252.941C290.383 241.252 302.81 232.092 316.234 224.431C340.616 210.515 366.708 202.43 394.773 200.558ZM400.646 218.946C393.839 219.231 386.817 219.45 380.082 220.468C348.402 225.261 315.135 240.724 293.186 264.499C267.84 291.953 252.981 327.365 254.72 365.037C256.444 402.414 269.998 436.36 297.988 461.784C327.814 488.877 361.199 502.228 401.416 502.359C440.038 502.273 477.912 488.33 505.377 460.72Q506.61 459.474 507.811 458.198Q509.013 456.922 510.182 455.617Q511.352 454.312 512.489 452.978Q513.625 451.644 514.729 450.283Q515.833 448.921 516.902 447.533Q517.972 446.145 519.006 444.73Q520.041 443.316 521.041 441.876Q522.04 440.436 523.004 438.973Q523.967 437.509 524.894 436.021Q525.821 434.534 526.711 433.024Q527.601 431.515 528.454 429.983Q529.306 428.452 530.12 426.9Q530.934 425.348 531.71 423.776Q532.485 422.205 533.222 420.614Q533.958 419.024 534.655 417.416Q535.352 415.808 536.009 414.183Q536.665 412.558 537.282 410.917Q537.898 409.277 538.474 407.622Q539.049 405.966 539.584 404.297Q540.118 402.628 540.611 400.946Q541.104 399.264 541.555 397.571Q542.007 395.878 542.416 394.173Q542.825 392.469 543.192 390.756Q543.559 389.042 543.883 387.32Q544.208 385.597 544.489 383.867Q544.771 382.138 545.01 380.401Q545.248 378.665 545.444 376.924Q545.64 375.182 545.792 373.436Q545.945 371.69 546.054 369.941Q546.163 368.192 546.229 366.441Q546.295 364.689 546.318 362.937Q546.341 361.184 546.32 359.432C546.231 322.701 530.367 286.773 504.368 260.968C497.618 254.268 490.012 248.574 482.092 243.351C456.33 226.362 431.319 219.437 400.646 218.946Z"/>
	<path d="M466.545 264.658Q468.037 264.583 469.53 264.588C479.638 264.649 489.052 266.853 496.362 274.281C501.022 279.015 504.029 285.083 505.348 291.562C507.635 302.799 506.158 314.579 506.276 325.964Q506.526 339.383 506.545 352.805C506.497 359.123 506.1 365.428 506.145 371.749C506.211 380.991 506.904 390.206 506.817 399.455C506.71 410.821 504.574 420.958 496.111 429.152Q495.01 430.205 493.782 431.105Q492.554 432.005 491.218 432.737Q489.883 433.469 488.464 434.021Q487.044 434.573 485.565 434.935C479.744 436.377 473.1 435.772 467.145 435.717L437.117 435.219C439.445 440.526 441.34 445.536 442.474 451.233C445.999 450.966 451.531 450.275 454.716 451.991C455.447 452.386 455.972 452.982 456.215 453.771C457.202 456.968 458.032 466.364 456.501 469.339C451.289 470.539 443.455 469.546 437.921 469.718Q391.262 471.389 344.593 469.997C344.26 466.981 344.468 463.872 344.535 460.84C344.658 458.254 344.235 453.786 346.554 452.079C349.203 450.129 356.092 451.637 359.257 452.046C361.214 446.707 362.092 441.076 364.879 436.034C354.54 435.038 343.672 435.833 333.277 435.889C327.967 435.917 322.419 436.166 317.222 434.922C313.124 433.941 309.383 432.049 306.301 429.144C299.523 422.755 296.332 414.354 296.076 405.17C295.819 395.991 296.275 386.767 296.307 377.586L296.384 328.182C296.488 315.055 294.804 300.756 297.417 287.865C298.437 282.833 301.409 277.519 304.961 273.839C309.158 269.49 314.563 266.994 320.462 265.925C325.707 264.975 331.02 265.319 336.322 265.33Q345.295 265.32 354.267 265.189C391.683 264.5 429.131 265.258 466.545 264.658ZM457.987 282.609L359.224 283.014C349.773 283.081 333.545 281.662 324.804 283.222C321.541 283.804 318.358 285.956 316.142 288.4C315.346 289.279 314.67 290.224 314.025 291.216C313.58 307.095 314.007 323.063 314.006 338.951C314.005 351.999 313.487 365.251 314.043 378.277C324.758 378.651 335.576 378.14 346.308 378.198L488.202 378.162C488.456 361.185 488.244 344.129 488.284 327.14C488.305 318.194 489.225 302.895 487.53 294.735C486.966 292.023 485.2 289.768 483.291 287.833C481.445 285.963 479.379 284.189 477.094 282.881Q467.544 282.51 457.987 282.609ZM323.105 395.102L313.038 395.674C312.927 402.258 312.878 409.525 317.888 414.512C320.363 416.976 322.823 418.103 326.234 418.669C331.351 419.519 336.91 419.088 342.088 419.079L370.003 419.077C380.721 419.158 391.596 420.313 402.269 420.101C415.386 419.841 428.492 419.013 441.622 418.945C453.869 418.881 466.395 419.666 478.601 418.699C482.796 416.522 485.63 413.907 487.137 409.3C488.532 405.036 488.565 399.881 488.238 395.44C480.696 394.722 473.017 394.989 465.447 395.003L432.314 395.073L323.105 395.102ZM383.436 435.821C381.209 441.764 379.385 447.738 376.747 453.528L419.541 453.146C421.585 453.127 423.634 453.14 425.676 453.076C423.757 448.37 421.621 443.959 420.001 439.108C419.783 438.456 419.567 437.054 418.928 436.753C415.881 435.321 388.431 435.857 383.436 435.821Z"/>
	<path d="M399.402 398.378C399.611 398.391 399.821 398.401 400.03 398.419C402.704 398.652 405.938 400.137 407.582 402.306C408.804 403.917 409.338 405.901 408.95 407.896C408.313 411.171 406.079 413.097 403.487 414.937C402.922 415.072 402.35 415.224 401.763 415.184C399.675 415.043 397.394 414.004 396.093 412.343C393.654 409.229 393.792 406.156 394.22 402.484C395.794 400.846 397.535 399.652 399.402 398.378Z"/>
</svg>
