<?xml version="1.0" encoding="utf-8" ?>
<svg xmlns="http://www.w3.org/2000/svg" xmlns:xlink="http://www.w3.org/1999/xlink" width="802" height="802">
	<path fill="#040404" transform="scale(4.24183 4.24183)" d="M159.807 90.5185C160.468 90.465 161.179 90.3901 161.836 90.5052C162.655 90.6487 163.43 91.1024 163.897 91.7975C164.302 92.3984 164.395 93.123 164.226 93.8209C163.886 95.2258 162.84 95.9671 161.689 96.6847C160.925 96.76 160.063 96.8817 159.32 96.6371C158.523 96.3744 157.869 95.7498 157.506 94.9995C157.153 94.2712 157.18 93.4421 157.456 92.6944C157.915 91.452 158.675 91.0376 159.807 90.5185Z"/>
	<path fill="#040404" transform="scale(4.24183 4.24183)" d="M76.7927 36.0235C76.2875 35.0406 75.7562 34.2412 75.8306 33.0851C75.8862 32.2217 76.1233 31.4418 76.801 30.8681C77.6859 30.1191 78.6546 30.0743 79.7615 30.1446C81.3489 30.9156 81.8494 31.5559 82.5238 33.1735C82.3968 34.0122 82.2891 35.0006 81.873 35.75C81.5226 36.381 80.9788 36.9833 80.2534 37.1612C78.9991 37.4687 77.802 36.648 76.7927 36.0235Z"/>
	<path fill="#040404" transform="scale(4.24183 4.24183)" d="M101.767 26.7446C102.181 26.7048 102.611 26.6674 103.025 26.7096C104.093 26.8181 105.209 27.3589 105.86 28.2264C106.342 28.8691 106.517 29.6806 106.383 30.47C106.15 31.8345 105.123 32.5871 104.072 33.3331C103.466 33.4158 102.775 33.5311 102.171 33.395C101.239 33.185 100.365 32.5498 99.8869 31.7223C99.3988 30.8778 99.3121 29.8826 99.6003 28.9555C99.9767 27.7443 100.711 27.3039 101.767 26.7446Z"/>
	<path fill="#040404" transform="scale(4.24183 4.24183)" d="M78.1728 41.9503C79.1734 41.9294 79.9674 42.0537 80.7098 42.789C82.1944 44.2596 82.2805 47.1113 82.2576 49.0578C82.2372 50.7925 82.2121 52.7244 80.903 54.0037C80.6773 54.0582 80.4519 54.1071 80.2218 54.1389C79.4506 54.2456 78.6615 54.1863 78.0303 53.687C77.1886 53.0213 76.8797 51.5943 76.793 50.5761C76.5885 48.176 76.5721 43.8312 78.1728 41.9503Z"/>
	<path fill="#040404" transform="scale(4.24183 4.24183)" d="M123.659 13.0262C124.228 13.0598 124.948 13.1023 125.497 13.2647C126.015 13.4179 126.516 13.7087 126.753 14.2113C127.404 15.5936 127.556 33.1045 126.939 34.8203C126.741 35.3724 125.838 35.688 125.337 35.9181Q124.891 35.96 124.445 35.9282C123.631 35.8763 122.991 35.6309 122.446 35.0224C121.728 33.1656 121.526 16.2709 122.162 14.3659C122.418 13.6009 122.967 13.3584 123.659 13.0262Z"/>
	<path fill="#040404" transform="scale(4.24183 4.24183)" d="M113.552 141.805C115.307 141.702 117.459 141.939 118.824 143.143C120.547 144.664 120.581 146.838 120.677 148.947C119.542 151.389 117.951 153.057 115.422 154.001C114.275 154.049 113.365 153.9 112.326 153.409C110.724 152.653 109.431 151.477 108.844 149.763C108.335 148.277 108.52 146.623 109.222 145.231C110.141 143.409 111.662 142.42 113.552 141.805Z"/>
	<path fill="#040404" transform="scale(4.24183 4.24183)" d="M113.045 10.7198C113.478 10.7262 113.934 10.8074 114.351 10.9239C114.863 11.0671 115.356 11.4096 115.599 11.8959C116.037 12.7737 116.774 45.1401 116.106 46.7653C115.797 47.5163 114.953 47.6546 114.259 47.92C113.38 47.8356 112.231 47.7276 111.534 47.155C110.91 44.9562 110.732 13.6403 111.396 11.9542C111.675 11.2434 112.39 11.0035 113.045 10.7198ZM112.25 16.6644C112.259 23.2111 112.004 29.7798 111.989 36.3376C111.984 38.4228 111.647 41.3584 112.196 43.3263C112.527 40.4759 112.958 18.4171 112.25 16.6644Z"/>
	<path fill="#040404" fill-opacity="0.97254902" transform="scale(4.24183 4.24183)" d="M112.25 16.6644C112.958 18.4171 112.527 40.4759 112.196 43.3263C111.647 41.3584 111.984 38.4228 111.989 36.3376C112.004 29.7798 112.259 23.2111 112.25 16.6644Z"/>
	<path fill="#040404" transform="scale(4.24183 4.24183)" d="M163.464 165.019C165.387 164.921 167.131 165.1 168.83 166.06Q169.156 166.242 169.462 166.455Q169.768 166.668 170.051 166.911Q170.334 167.153 170.592 167.423Q170.85 167.692 171.08 167.986Q171.309 168.28 171.509 168.595Q171.708 168.91 171.876 169.243Q172.043 169.577 172.176 169.925Q172.31 170.273 172.408 170.633Q172.507 170.988 172.57 171.35Q172.633 171.713 172.66 172.08Q172.687 172.447 172.677 172.815Q172.668 173.183 172.623 173.548Q172.577 173.914 172.496 174.273Q172.414 174.632 172.298 174.981Q172.182 175.33 172.032 175.666Q171.882 176.002 171.699 176.322C170.403 178.578 168.041 180.065 165.57 180.722C163.662 180.862 162.037 180.734 160.353 179.743C158.504 178.654 157.109 176.738 156.577 174.664Q156.488 174.324 156.435 173.977Q156.381 173.63 156.362 173.279Q156.343 172.928 156.36 172.577Q156.376 172.226 156.428 171.879Q156.48 171.531 156.566 171.191Q156.652 170.85 156.773 170.52Q156.893 170.19 157.046 169.874Q157.198 169.557 157.382 169.258C158.717 167.036 160.991 165.63 163.464 165.019Z"/>
	<path fill="#040404" transform="scale(4.24183 4.24183)" d="M131.229 141.851Q141.475 141.771 151.721 141.794C155.917 141.781 164.996 141.131 168.718 142.335L168.662 142.781L168.869 142.424C168.954 142.608 169.014 142.688 169.012 142.895C168.991 145.217 165.827 147.801 164.293 149.34L163.684 149.86C162.472 149.583 162.962 147.611 160.994 147.362C155.802 146.704 130.836 148.212 128.519 146.401C127.812 145.849 127.297 144.893 127.189 144.013C127.255 143.607 127.342 143.271 127.626 142.96C128.62 141.868 129.861 141.927 131.229 141.851Z"/>
	<path fill="#040404" transform="scale(4.24183 4.24183)" d="M67.6631 118.353C70.7375 117.947 74.1928 118.188 77.301 118.178L99.7981 118.273Q128.352 118.136 156.904 118.413C163.565 118.438 170.247 118.183 176.904 118.286C177.904 118.302 179.152 118.276 180.027 118.822C180.405 119.266 180.606 119.622 180.623 120.217C180.643 120.93 180.561 122.173 180.033 122.693C178.702 124.003 175.375 123.551 173.625 123.533C151.404 123.852 129.131 123.476 106.904 123.497L79.1453 123.547C73.8557 123.596 68.5282 123.872 63.2436 123.754C62.4507 123.736 61.2454 123.613 60.6272 123.094C60.1861 122.724 60.2024 122.466 60.1519 121.939C60.6574 120.621 61.7291 119.951 62.8976 119.284C64.3014 118.482 66.0798 118.487 67.6631 118.353Z"/>
	<path fill="#040404" transform="scale(4.24183 4.24183)" d="M87.8429 138.95C91.1694 139.49 94.9238 140.169 97.028 143.11Q97.22 143.379 97.3841 143.665Q97.5481 143.952 97.6827 144.254Q97.8172 144.555 97.9208 144.869Q98.0244 145.183 98.096 145.505Q98.1676 145.827 98.2066 146.155Q98.2455 146.483 98.2514 146.814Q98.2573 147.144 98.2301 147.473Q98.2028 147.802 98.1427 148.127C97.653 150.851 95.4148 153.323 93.6457 155.354C101.566 155.675 109.572 155.975 117.499 155.747C120.978 155.647 124.446 155.212 127.928 155.095C133.111 154.923 138.303 155.069 143.488 154.982C148.022 154.906 152.895 154.27 157.322 155.383C157.648 155.813 157.794 155.99 157.705 156.541C157.575 157.343 156.756 158.155 156.214 158.715L156.716 159.206L157.148 158.487L157.572 158.611C157.48 158.943 157.457 159.319 157.125 159.502C157.017 159.561 156.862 159.585 156.746 159.612L156.474 160.129L156.727 160.47L156.334 160.646C156.126 160.552 155.982 160.46 155.809 160.312C154.959 160.924 154.381 161.811 153.54 162.412C152.88 162.882 146.407 166.64 145.929 166.55C145.388 166.447 145.26 165.951 144.847 165.749C144.253 165.458 139.487 165.918 138.527 165.921L138.088 166.238C132.378 166.72 126.352 166.076 120.611 166.029C116.014 166.809 111.055 166.554 106.393 166.53C95.0929 166.474 83.5648 165.683 72.3232 166.917C71.093 167.28 69.7722 167.487 68.516 167.759C66.0856 166.838 64.4078 165.623 62.9816 163.407C60.556 159.638 59.9582 155.286 60.8903 150.946L61.3464 151.452C61.2217 152.303 60.9318 153.331 61.4952 154.068C61.8415 154.521 62.0629 154.588 62.5919 154.739C63.5799 154.568 64.0063 153.977 64.8423 153.555C64.8331 153.588 64.8227 153.622 64.8146 153.655C64.6228 154.452 64.8849 155.291 64.8763 156.1L65.1341 155.573C65.2457 153.838 65.7991 152.094 66.2329 150.414C67.2877 149.786 69.3455 146.166 70.4967 144.991C71.9693 143.487 73.8957 142.529 75.4969 141.19L75.5882 141.112C78.2738 140.04 80.9329 139.495 83.7719 139.004C85.1196 138.988 86.5 139.037 87.8429 138.95ZM60.8903 150.946C59.9582 155.286 60.556 159.638 62.9816 163.407C64.4078 165.623 66.0856 166.838 68.516 167.759C69.7722 167.487 71.093 167.28 72.3232 166.917C83.5648 165.683 95.0929 166.474 106.393 166.53C111.055 166.554 116.014 166.809 120.611 166.029C126.352 166.076 132.378 166.72 138.088 166.238L138.527 165.921C139.487 165.918 144.253 165.458 144.847 165.749C145.26 165.951 145.388 166.447 145.929 166.55C146.407 166.64 152.88 162.882 153.54 162.412C154.381 161.811 154.959 160.924 155.809 160.312C155.982 160.46 156.126 160.552 156.334 160.646L156.727 160.47L156.474 160.129L156.746 159.612C156.862 159.585 157.017 159.561 157.125 159.502C157.457 159.319 157.48 158.943 157.572 158.611L157.148 158.487L156.716 159.206L156.214 158.715C153.936 160.217 151.982 161.961 149.484 163.127C149.195 162.262 148.977 161.227 148.272 160.608C145.812 159.6 121.348 160.909 116.894 161.468Q118.108 161.556 119.32 161.662C118.068 161.676 111.789 161.656 111.182 162.27L111.251 162.482C104.792 162.525 98.3389 162.208 91.8926 162.255C90.5028 162.265 86.0481 162.786 85.0954 162.577C84.6172 162.471 84.0322 161.611 83.4729 161.52C82.6871 161.392 81.1429 162.256 80.2735 162.367C78.8975 162.543 78.3865 162.224 77.3073 161.387C76.3081 160.82 72.3127 161.769 70.7058 161.419L70.7391 161.074C69.4539 161.07 68.0015 161.197 66.9191 160.373C65.5672 159.343 65.3286 157.14 65.1341 155.573L64.8763 156.1C64.8849 155.291 64.6228 154.452 64.8146 153.655C64.8227 153.622 64.8331 153.588 64.8423 153.555C64.0063 153.977 63.5799 154.568 62.5919 154.739C62.0629 154.588 61.8415 154.521 61.4952 154.068C60.9318 153.331 61.2217 152.303 61.3464 151.452L60.8903 150.946ZM69.8245 149.633C69.29 151.173 68.8762 153.212 67.489 154.19L67.732 154.945C68.177 154.903 68.6635 154.988 69.1125 155.022C72.8182 155.302 82.8297 155.887 86.2099 154.944C87.7328 154.52 89.4874 153.289 90.6716 152.26C91.9516 151.148 92.9468 149.778 93.0498 148.027C93.0995 147.183 93.0315 146.338 92.4509 145.686C89.8842 144.504 80.9712 145.6 78.0339 146.143C75.4549 146.62 71.4026 147.344 69.8245 149.633ZM70.7391 161.074L70.7058 161.419C72.3127 161.769 76.3081 160.82 77.3073 161.387C78.3865 162.224 78.8975 162.543 80.2735 162.367C81.1429 162.256 82.6871 161.392 83.4729 161.52C84.0322 161.611 84.6172 162.471 85.0954 162.577C86.0481 162.786 90.5028 162.265 91.8926 162.255C98.3389 162.208 104.792 162.525 111.251 162.482L111.182 162.27C111.789 161.656 118.068 161.676 119.32 161.662Q118.108 161.556 116.894 161.468C115.177 161.252 113.184 161.471 111.432 161.482L98.6238 161.528C94.6818 161.516 90.8552 160.534 86.9287 160.419C81.5104 160.262 76.1504 160.987 70.7391 161.074ZM67.6701 149.968C68.0099 150.652 68.0939 151.619 67.8605 152.345C67.6411 153.028 67.3309 153.432 67.489 154.19C68.8762 153.212 69.29 151.173 69.8245 149.633C69.7833 149.624 69.7419 149.616 69.701 149.606C69.1968 149.481 68.9438 149.284 68.5729 148.932Q68.1303 149.458 67.6701 149.968ZM67.6701 149.968C67.0247 151.308 66.1219 152.736 66.2147 154.263L66.5234 154.793C66.9293 154.869 67.3168 154.939 67.732 154.945L67.489 154.19C67.3309 153.432 67.6411 153.028 67.8605 152.345C68.0939 151.619 68.0099 150.652 67.6701 149.968Z"/>
	<path fill="#040404" fill-opacity="0.96862745" transform="scale(4.24183 4.24183)" d="M67.6701 149.968C68.0099 150.652 68.0939 151.619 67.8605 152.345C67.6411 153.028 67.3309 153.432 67.489 154.19L67.732 154.945C67.3168 154.939 66.9293 154.869 66.5234 154.793L66.2147 154.263C66.1219 152.736 67.0247 151.308 67.6701 149.968Z"/>
	<path fill="#040404" fill-opacity="0.98039216" transform="scale(4.24183 4.24183)" d="M67.6701 149.968Q68.1303 149.458 68.5729 148.932C68.9438 149.284 69.1968 149.481 69.701 149.606C69.7419 149.616 69.7833 149.624 69.8245 149.633C69.29 151.173 68.8762 153.212 67.489 154.19C67.3309 153.432 67.6411 153.028 67.8605 152.345C68.0939 151.619 68.0099 150.652 67.6701 149.968Z"/>
	<path fill="#040404" transform="scale(4.24183 4.24183)" d="M116.974 69.0282C116 67.6047 115.177 66.1087 114.885 64.3868C114.503 62.1306 114.892 59.4369 116.251 57.5571C117.363 56.0186 119.056 55.0436 120.886 54.6159C123.417 54.0242 126.305 54.3126 128.882 54.4167C135.499 54.684 145.59 55.8953 151.857 54.8657C152.721 54.7236 153.818 54.4265 154.342 53.659C154.744 53.0704 154.679 52.5308 154.559 51.8628C152.87 49.637 139.497 50.9701 135.848 49.9223C134.343 49.49 133.295 48.3874 132.566 47.0398C131.731 45.4952 131.505 43.7411 132.026 42.0466C132.638 40.057 134.262 38.4946 136.071 37.5462C137.113 36.9997 138.201 36.6865 139.363 36.5279C143.319 35.9883 160.778 35.4855 163.988 36.5318C164.868 36.8188 165.316 37.292 165.706 38.1173C166.113 38.9788 166.31 39.8695 165.98 40.7822C164.309 43.0716 142.198 40.711 137.726 42.7035C137.118 42.9745 136.945 43.1513 136.724 43.769C136.796 43.9237 136.873 44.0737 136.97 44.2143C137.525 45.0153 138.675 45.25 139.578 45.3868C142.08 45.7659 144.785 45.4725 147.325 45.5142C152.166 45.5937 156.973 45.8634 161.82 45.799C164.025 45.7697 166.79 45.3034 168.93 45.7734C169.983 46.0045 170.99 46.5399 171.555 47.4906C171.876 48.0319 171.814 48.4029 171.652 48.9799C169.468 51.543 163.236 48.9782 160.795 50.4215C160.361 50.6784 160.378 50.8985 160.267 51.3626C160.406 51.8176 160.562 52.2166 160.878 52.5812C163.345 55.4278 169.483 54.3339 172.917 54.6449C174.06 54.7485 175.42 55.0437 176.164 55.9951C176.539 56.4743 176.711 57.162 176.624 57.7635C176.563 58.1901 176.325 58.6355 175.968 58.8734C174.372 59.9358 165.094 59.3758 162.99 59.0138C161.598 58.7743 160.69 57.5287 159.357 57.0682C158.013 57.4315 158.984 58.8734 155.007 59.4462C147.398 60.5423 139.346 59.81 131.687 59.5432C128.836 59.4439 125.856 59.1927 123.018 59.4939C122.29 59.5711 121.791 59.7658 121.214 60.2178C120.535 60.5703 120.272 61.1214 120.045 61.8308C119.566 63.3256 119.641 65.0015 120.38 66.3953C120.937 67.4443 121.948 68.3845 123.108 68.704C123.981 68.9445 125.045 68.8147 125.944 68.7683C130.719 68.6222 135.64 68.5743 140.384 68.0753C140.799 66.2699 141.686 64.396 143.304 63.3802C147.012 61.0525 163.562 62.2906 168.575 62.2188C171.528 62.1765 175.344 61.2702 178.162 61.9569C178.783 62.1082 179.23 62.5717 179.537 63.114C179.897 63.7509 180.072 64.5236 179.871 65.2409C179.672 65.951 179.19 66.4735 178.541 66.8064C174.271 68.9979 148.854 64.6167 146.104 68.5296C145.95 73.0058 159.371 78.6407 147.427 89.8329C145.537 91.6039 143.253 93.1531 140.71 93.7827C134.171 95.4018 123.173 93.4041 116.021 94.0355C114.057 94.209 108.046 95.1845 108.05 97.8518C108.053 99.9272 109.58 102.571 111.079 103.963C112.872 105.628 115.181 106.63 117.579 107.035C120.83 107.584 124.391 107.362 127.687 107.383Q135.197 107.493 142.708 107.479C154.027 107.463 165.48 107.857 176.782 107.453C178.403 107.395 183.798 106.673 183.828 109.266C183.837 110.058 183.428 110.924 182.871 111.473C181.369 112.954 178.68 112.639 176.746 112.582C161.099 112.12 145.389 112.51 129.729 112.364Q123.938 112.34 118.151 112.121C114.235 111.959 110.221 111.542 106.322 112.031L106.109 112.029C97.4917 111.901 88.773 112.178 80.1536 112.345C74.621 112.453 68.3594 112.016 62.9684 113.256C60.6022 113.8 58.9567 114.664 57.216 116.365C55.2593 118.278 53.7636 120.652 53.7549 123.465C53.7495 125.211 54.2405 126.964 55.5042 128.225C57.9202 130.635 61.6753 130.478 64.8291 130.428Q105.174 129.642 145.523 130.215C151.766 130.254 158.016 130.383 164.258 130.312C167.282 130.279 170.371 129.919 173.386 130.033C174.139 130.061 174.873 130.118 175.539 130.505C175.953 131.001 176.069 131.471 176.025 132.115C175.94 133.376 175.297 134.968 174.314 135.8C173.94 136.116 173.515 136.309 173.019 136.228C172.188 136.092 171.491 135.549 170.581 135.436C167.133 135.008 160.54 135.417 156.723 135.412L125.618 135.275L92.4689 135.183Q83.9115 135.041 75.3533 135.131C72.1727 135.138 68.8911 135.003 65.7221 135.259C60.3321 134.782 54.8873 135.509 49.5644 134.101C46.0007 133.158 42.515 130.758 40.6628 127.524C38.9676 124.563 39.2477 121.398 40.1203 118.228Q40.4625 117.361 40.8788 116.528C42.4529 113.334 45.2243 110.492 48.571 109.176C52.2691 107.723 56.9736 107.922 60.9098 107.782C66.1966 107.593 71.5053 107.328 76.7949 107.304C84.4575 107.269 98.8794 108.302 105.57 106.012C104.885 101.57 101.052 98.4678 101.608 93.7421C101.931 90.9952 103.504 88.8778 105.427 86.9873C115.351 77.2324 125.388 83.2259 129.659 79.8275C129.995 79.168 130.147 78.7628 129.951 78.0087C129.612 76.7085 128.868 75.6751 127.702 74.9936C126.261 74.1512 108.447 74.2081 106.544 74.6967C105.698 74.9139 104.901 75.2924 104.463 76.0776C104.288 76.3895 104.274 76.7738 104.385 77.1155C104.884 78.6415 106.48 79.2982 107.777 80.0128L108.611 82.4928C107.613 82.6905 106.581 82.9265 105.564 82.9749C103.77 83.06 101.943 82.515 100.61 81.2818Q100.373 81.0599 100.16 80.8153Q99.9465 80.5707 99.7589 80.3059Q99.5712 80.041 99.4112 79.7587Q99.2512 79.4763 99.1205 79.1792Q98.9897 78.8822 98.8896 78.5735Q98.7894 78.2647 98.7208 77.9475Q98.6522 77.6303 98.6159 77.3078Q98.5796 76.9852 98.576 76.6607C98.5559 74.9007 99.2689 73.2643 100.512 72.0315C104.476 68.0989 111.827 68.981 116.974 69.0282ZM131.861 72.587C132.125 74.6019 137.792 78.2308 133.772 83.3252C132.43 85.0258 130.203 85.671 128.13 85.8772C121.901 86.4965 113.361 85.2937 108.862 90.6565C107.635 92.1186 107.039 93.6905 106.522 95.5006C108.852 92.8302 110.776 91.0006 114.092 89.6036C122.346 87.7649 134.616 90.462 141.087 88.3191C143.101 87.6521 144.741 86.3406 145.884 84.5512C146.771 83.1638 147.172 81.6639 146.782 80.0308C146.261 77.8443 144.533 76.093 142.647 74.9799C138.667 72.631 135.933 73.2677 131.861 72.587Z"/>
	<path fill="#040404" transform="scale(4.24183 4.24183)" d="M67.2625 11.8803C74.3426 9.86324 80.6686 8.75287 88.0597 8.62718C89.6762 8.59968 91.8656 8.34527 93.3007 9.17728C94.0464 9.60956 94.2524 10.28 94.425 11.0825C95.1753 14.5691 94.8124 18.7751 94.843 22.3587C94.9167 31.0106 94.8211 39.6321 94.7465 48.2823Q94.7015 53.597 94.7203 58.9115C94.7396 60.8088 94.9262 62.7534 94.8161 64.6436C94.7649 65.5239 94.646 66.5241 94.1527 67.2749C93.8973 67.6636 93.5777 67.9324 93.1139 68.034C92.4295 68.1839 91.531 67.848 90.9856 67.4482C90.1824 66.8594 89.8309 65.9108 89.7066 64.9534C89.439 62.8924 89.7713 60.6508 89.7849 58.5631L89.7904 44.0505Q89.812 31.2845 89.6342 18.5197C89.5825 16.0368 89.2421 13.541 89.2207 11.0788L88.9104 10.675C85.8598 10.42 77.3437 16.9551 74.9685 18.9565C74.7531 19.138 74.5396 19.3203 74.3342 19.5131C73.0074 21.0952 71.4021 22.7537 70.3138 24.4959C66.818 30.0919 65.6511 38.1127 66.2352 44.5945C67.7123 60.9839 84.6358 68.3876 84.5881 84.7341C84.5745 89.3725 82.9019 93.3012 79.9471 96.85C76.4617 101.036 72.3838 102.799 67.0174 103.272C55.5982 104.278 47.1224 100.627 38.5277 110.832C37.271 112.324 36.4992 113.841 35.824 115.66C34.5077 121.333 34.0934 126.183 37.3345 131.349C40.1767 135.88 45.1456 138.293 50.2351 139.426C57.4553 141.032 65.2325 139.746 72.2965 137.953C68.7373 140.351 64.0304 143.322 62.0323 147.212C61.4088 148.415 61.1844 149.638 60.8903 150.946C59.9582 155.286 60.556 159.638 62.9816 163.407C64.4078 165.623 66.0856 166.838 68.516 167.759C69.7722 167.487 71.093 167.28 72.3232 166.917C83.5648 165.683 95.0929 166.474 106.393 166.53C111.055 166.554 116.014 166.809 120.611 166.029C126.352 166.076 132.378 166.72 138.088 166.238C140.407 166.54 142.952 166.422 145.301 166.501C137.735 172.252 127.113 176.451 118.011 179.155C113.026 180.636 108.042 181.279 102.879 181.74C84.5741 183.373 67.1963 179.954 51.0087 171.173Q50.0477 170.653 49.0999 170.11Q48.152 169.566 47.2178 168.999Q46.2835 168.433 45.3635 167.843Q44.4435 167.254 43.5382 166.642Q42.633 166.03 41.7431 165.396Q40.8531 164.762 39.979 164.107Q39.105 163.451 38.2473 162.774Q37.3896 162.097 36.5488 161.4Q35.708 160.702 34.8846 159.983Q34.0612 159.265 33.2557 158.527Q32.4502 157.789 31.6631 157.031Q30.8761 156.273 30.1078 155.496Q29.3396 154.719 28.5907 153.923Q27.8419 153.128 27.1128 152.314Q26.3837 151.5 25.6748 150.669Q24.9659 149.837 24.2777 148.989Q23.5895 148.14 22.9224 147.275Q22.2552 146.409 21.6096 145.528Q20.9639 144.646 20.3401 143.749Q19.7163 142.852 19.1147 141.94Q18.5132 141.028 17.9342 140.101Q17.3553 139.175 16.7993 138.234Q16.2433 137.294 15.7106 136.34Q15.1779 135.386 14.6688 134.419Q14.1597 133.452 13.6746 132.473Q13.1894 131.494 12.7284 130.503Q12.2675 129.513 11.831 128.511Q11.3946 127.509 10.9829 126.497Q10.5712 125.485 10.1845 124.463Q9.79781 123.441 9.43636 122.41Q9.07491 121.379 8.73892 120.339Q8.40293 119.3 8.0926 118.252C1.68898 96.5663 5.11493 73.2783 15.8463 53.5685C26.4836 34.0315 45.902 18.1956 67.2625 11.8803ZM19.3769 73.9923C19.9694 77.0926 21.4156 79.9968 24.104 81.8011C25.7122 82.8806 27.6202 83.382 29.5474 82.9905C30.983 82.6988 33.8768 80.8486 34.7057 79.5586C41.6581 77.7733 40.5187 85.5317 47.206 86.6883C50.0898 87.1871 61.4473 87.3912 63.6468 85.7433C64.2096 85.3216 64.4731 84.7946 64.5449 84.0889C64.6064 83.4854 64.4492 82.9091 64.0491 82.4504C62.2472 80.3843 53.3729 81.5671 50.5394 81.3154C41.9284 80.5507 41.1396 74.5124 36.5945 69.0505C35.6143 68.6943 34.5828 68.2823 33.5437 68.1499C32.8959 68.0674 32.3792 68.1558 31.8717 68.575C30.6438 69.5891 31.7765 73.78 31.6349 75.3191C31.5679 76.0465 31.3111 76.808 30.713 77.2682C30.2356 77.6355 29.6009 77.7237 29.0175 77.6299C27.7879 77.4322 26.7302 76.5806 26.0366 75.5786C24.6464 73.5703 24.7322 71.0154 25.1795 68.7136C25.6767 66.1551 27.0882 63.6857 29.2834 62.2194C31.1308 60.9854 33.4605 60.7031 35.6118 61.132C41.1094 62.2281 42.0971 66.8651 44.7858 70.9035C46.2303 73.0732 48.1816 74.8035 50.6756 75.6352C54.9779 77.07 62.6104 76.1834 67.3247 76.2589Q73.1512 76.3551 78.8666 77.492L79.3254 77.1839C79.5288 76.6956 79.5693 76.2971 79.5056 75.7691C79.2988 74.0569 78.5247 72.857 76.9348 72.1529C72.6218 70.2428 56.3559 72.5488 50.8799 71.2091C48.4333 70.6105 47.7816 65.6077 46.7438 63.5185Q46.3792 62.7908 45.939 62.1062Q45.4987 61.4216 44.9879 60.788Q44.477 60.1543 43.9014 59.5789Q43.3257 59.0034 42.6919 58.4928C40.0097 56.367 36.2686 55.2291 32.8607 55.6457C28.8362 56.1375 24.8584 58.6083 22.3907 61.792C19.845 65.0763 18.8675 69.9221 19.3769 73.9923ZM70.1482 168.733C74.5483 173.475 86.9193 176.411 93.1753 176.642C104.558 177.062 115.734 176.815 126.703 173.489L130.374 172.878C124.237 171.275 118.127 171.703 111.84 171.697L91.8897 171.557C87.9861 171.554 84.0574 171.798 80.1596 171.565C75.984 171.315 73.3763 168.939 70.1482 168.733ZM34.6067 91.4476C33.4244 92.125 32.1116 92.8128 31.7103 94.2276Q31.6428 94.4602 31.6248 94.7017Q31.6067 94.9432 31.6389 95.1832Q31.671 95.4232 31.752 95.6514Q31.8329 95.8797 31.9592 96.0863C32.6289 97.1844 33.7083 97.7284 34.8711 98.1631C36.0525 97.713 36.8627 97.226 37.394 96.0072C37.7328 95.2298 37.8041 94.3309 37.4822 93.5372C37.1398 92.6927 36.3607 92.0235 35.524 91.6949C35.2236 91.5769 34.9271 91.4906 34.6067 91.4476ZM93.9231 39.9094C94.0348 35.159 94.6721 29.6363 93.9127 24.9732C93.5724 25.1198 93.4236 25.1053 93.2795 25.4612C92.8872 26.4299 93.1364 38.0135 93.4065 39.4594L93.9231 39.9094Z"/>
	<path fill="#040404" fill-opacity="0.96862745" transform="scale(4.24183 4.24183)" d="M93.9231 39.9094L93.4065 39.4594C93.1364 38.0135 92.8872 26.4299 93.2795 25.4612C93.4236 25.1053 93.5724 25.1198 93.9127 24.9732C94.6721 29.6363 94.0348 35.159 93.9231 39.9094Z"/>
</svg>
